M48
; DRILL file {KiCad 9.0.7} date 2026-03-12T17:24:57-0300
; FORMAT={-:-/ absolute / metric / decimal}
; #@! TF.CreationDate,2026-03-12T17:24:57-03:00
; #@! TF.GenerationSoftware,Kicad,Pcbnew,9.0.7
; #@! TF.FileFunction,Plated,1,2,PTH
FMAT,2
METRIC
; #@! TA.AperFunction,Plated,PTH,ComponentDrill
T1C0.600
; #@! TA.AperFunction,Plated,PTH,ComponentDrill
T2C0.700
; #@! TA.AperFunction,Plated,PTH,ComponentDrill
T3C0.800
; #@! TA.AperFunction,Plated,PTH,ComponentDrill
T4C1.000
; #@! TA.AperFunction,Plated,PTH,ComponentDrill
T5C1.100
; #@! TA.AperFunction,Plated,PTH,ComponentDrill
T6C1.300
%
G90
G05
T1
X107.0Y-62.5
X107.0Y-86.0
X109.0Y-62.5
X109.0Y-86.0
T2
X59.5Y-63.0
X59.5Y-70.62
X62.0Y-63.0
X62.19Y-70.5
X67.19Y-49.5
X69.62Y-63.0
X69.81Y-70.5
X74.81Y-49.5
X81.0Y-62.322
X81.0Y-69.942
X83.5Y-62.133
X83.69Y-69.632
X88.69Y-48.5
X91.12Y-62.133
X91.31Y-69.632
X96.19Y-73.5
X96.31Y-48.5
X103.5Y-63.19
X103.5Y-70.81
X103.81Y-73.5
T3
X61.96Y-52.195
X61.96Y-59.815
X64.5Y-52.195
X64.5Y-59.815
X65.5Y-80.5
X67.04Y-52.195
X67.04Y-59.815
X70.5Y-80.5
X83.46Y-51.328
X83.46Y-58.947
X86.0Y-51.328
X86.0Y-58.947
X87.0Y-80.132
X88.54Y-51.328
X88.54Y-58.947
X92.0Y-80.132
T4
X78.96Y-48.0
X81.5Y-48.0
X84.04Y-48.0
T5
X62.92Y-85.5
X62.96Y-75.45
X65.5Y-75.45
X68.04Y-75.45
X73.08Y-85.5
X84.42Y-85.632
X84.46Y-74.582
X87.0Y-74.582
X89.54Y-74.582
X94.58Y-85.632
X111.05Y-74.46
X111.05Y-77.0
X111.05Y-79.54
T6
X65.5Y-93.867
X70.5Y-93.867
X87.0Y-94.0
X92.0Y-94.0
X105.5Y-54.5
X105.5Y-93.867
X110.5Y-54.5
X110.5Y-93.867
M30
